<svg preserveAspectRatio="none" width="100%" height="100%" overflow="visible" style="display: block;" viewBox="0 0 32 32" fill="none" xmlns="http://www.w3.org/2000/svg">
<g id="basil:document-solid">
<path id="Vector" fill-rule="evenodd" clip-rule="evenodd" d="M19.0003 3.33333C19.0003 3.24493 18.9652 3.16014 18.9027 3.09763C18.8402 3.03512 18.7554 3 18.667 3H9.33366C8.3612 3 7.42857 3.38631 6.74093 4.07394C6.0533 4.76158 5.66699 5.69421 5.66699 6.66667V25.3333C5.66699 26.3058 6.0533 27.2384 6.74093 27.9261C7.42857 28.6137 8.3612 29 9.33366 29H22.667C23.6395 29 24.5721 28.6137 25.2597 27.9261C25.9473 27.2384 26.3337 26.3058 26.3337 25.3333V12.196C26.3337 12.1076 26.2985 12.0228 26.236 11.9603C26.1735 11.8978 26.0887 11.8627 26.0003 11.8627H20.0003C19.7351 11.8627 19.4808 11.7573 19.2932 11.5698C19.1057 11.3822 19.0003 11.1279 19.0003 10.8627V3.33333ZM20.0003 16.3333C20.2655 16.3333 20.5199 16.4387 20.7074 16.6262C20.895 16.8138 21.0003 17.0681 21.0003 17.3333C21.0003 17.5986 20.895 17.8529 20.7074 18.0404C20.5199 18.228 20.2655 18.3333 20.0003 18.3333H12.0003C11.7351 18.3333 11.4808 18.228 11.2932 18.0404C11.1057 17.8529 11.0003 17.5986 11.0003 17.3333C11.0003 17.0681 11.1057 16.8138 11.2932 16.6262C11.4808 16.4387 11.7351 16.3333 12.0003 16.3333H20.0003ZM20.0003 21.6667C20.2655 21.6667 20.5199 21.772 20.7074 21.9596C20.895 22.1471 21.0003 22.4015 21.0003 22.6667C21.0003 22.9319 20.895 23.1862 20.7074 23.3738C20.5199 23.5613 20.2655 23.6667 20.0003 23.6667H12.0003C11.7351 23.6667 11.4808 23.5613 11.2932 23.3738C11.1057 23.1862 11.0003 22.9319 11.0003 22.6667C11.0003 22.4015 11.1057 22.1471 11.2932 21.9596C11.4808 21.772 11.7351 21.6667 12.0003 21.6667H20.0003Z" fill="var(--fill-0, white)"/>
<path id="Vector_2" d="M21 3.76593C21 3.52059 21.2573 3.36459 21.448 3.51793C21.6098 3.64859 21.7533 3.80059 21.8787 3.97393L25.896 9.56993C25.9867 9.69793 25.888 9.86326 25.7307 9.86326H21.3333C21.2449 9.86326 21.1601 9.82814 21.0976 9.76563C21.0351 9.70312 21 9.61833 21 9.52993V3.76593Z" fill="var(--fill-0, white)"/>
</g>
</svg>
