<svg preserveAspectRatio="none" width="100%" height="100%" overflow="visible" style="display: block;" viewBox="0 0 204 28" fill="none" xmlns="http://www.w3.org/2000/svg">
<g id="Frame 33">
<path id="Star 1" d="M14 0L17.1432 9.67376H27.3148L19.0858 15.6525L22.229 25.3262L14 19.3475L5.77101 25.3262L8.9142 15.6525L0.685208 9.67376H10.8568L14 0Z" fill="var(--fill-0, #FFFF4D)"/>
<path id="Star 2" d="M58 0L61.1432 9.67376H71.3148L63.0858 15.6525L66.229 25.3262L58 19.3475L49.771 25.3262L52.9142 15.6525L44.6852 9.67376H54.8568L58 0Z" fill="var(--fill-0, #FFFF4D)"/>
<path id="Star 3" d="M102 0L105.143 9.67376H115.315L107.086 15.6525L110.229 25.3262L102 19.3475L93.771 25.3262L96.9142 15.6525L88.6852 9.67376H98.8568L102 0Z" fill="var(--fill-0, #FFFF4D)"/>
<path id="Star 4" d="M146 0L149.143 9.67376H159.315L151.086 15.6525L154.229 25.3262L146 19.3475L137.771 25.3262L140.914 15.6525L132.685 9.67376H142.857L146 0Z" fill="var(--fill-0, #FFFF4D)"/>
<path id="Star 5" d="M190 0L193.143 9.67376H203.315L195.086 15.6525L198.229 25.3262L190 19.3475L181.771 25.3262L184.914 15.6525L176.685 9.67376H186.857L190 0Z" fill="var(--fill-0, #FFFF4D)"/>
</g>
</svg>
