<svg preserveAspectRatio="none" width="100%" height="100%" overflow="visible" style="display: block;" viewBox="0 0 26.6667 29.0853" fill="none" xmlns="http://www.w3.org/2000/svg">
<g id="Group">
<g id="Vector">
</g>
<path id="Vector_2" d="M13.3333 0C20.6973 0 26.6667 5.96933 26.6667 13.3333C26.6667 20.6973 20.6973 26.6667 13.3333 26.6667C5.96933 26.6667 0 20.6973 0 13.3333C0 5.96933 5.96933 0 13.3333 0ZM13.3333 18.6667C12.9797 18.6667 12.6406 18.8071 12.3905 19.0572C12.1405 19.3072 12 19.6464 12 20C12 20.3536 12.1405 20.6928 12.3905 20.9428C12.6406 21.1929 12.9797 21.3333 13.3333 21.3333C13.687 21.3333 14.0261 21.1929 14.2761 20.9428C14.5262 20.6928 14.6667 20.3536 14.6667 20C14.6667 19.6464 14.5262 19.3072 14.2761 19.0572C14.0261 18.8071 13.687 18.6667 13.3333 18.6667ZM13.3333 6C12.0515 6 10.8221 6.50922 9.91565 7.41565C9.00922 8.32208 8.5 9.55145 8.5 10.8333C8.5 11.187 8.64048 11.5261 8.89052 11.7761C9.14057 12.0262 9.47971 12.1667 9.83333 12.1667C10.187 12.1667 10.5261 12.0262 10.7761 11.7761C11.0262 11.5261 11.1667 11.187 11.1667 10.8333C11.1671 10.44 11.2746 10.0543 11.4776 9.71745C11.6806 9.3806 11.9714 9.10535 12.3189 8.92123C12.6665 8.7371 13.0575 8.65103 13.4503 8.67225C13.843 8.69348 14.2225 8.82119 14.5481 9.0417C14.8738 9.26221 15.1333 9.56719 15.2988 9.92396C15.4643 10.2807 15.5296 10.6758 15.4876 11.0668C15.4457 11.4579 15.2981 11.8301 15.0607 12.1437C14.8233 12.4572 14.505 12.7002 14.14 12.8467C13.2387 13.2067 12 14.1293 12 15.6667V16C12 16.3536 12.1405 16.6928 12.3905 16.9428C12.6406 17.1929 12.9797 17.3333 13.3333 17.3333C13.687 17.3333 14.0261 17.1929 14.2761 16.9428C14.5262 16.6928 14.6667 16.3536 14.6667 16C14.6667 15.6747 14.7333 15.512 15.0147 15.3733L15.1307 15.32C16.1718 14.9012 17.0347 14.1333 17.5716 13.1479C18.1086 12.1625 18.286 11.021 18.0735 9.91918C17.861 8.81731 17.2718 7.82368 16.407 7.10863C15.5421 6.39357 14.4555 6.00163 13.3333 6Z" fill="var(--fill-0, #FF541B)"/>
</g>
</svg>
