<svg preserveAspectRatio="none" width="100%" height="100%" overflow="visible" style="display: block;" viewBox="0 0 18.6667 23.3333" fill="none" xmlns="http://www.w3.org/2000/svg">
<g id="Group">
<path id="Vector" d="M11.6667 1.16667V5.83333C11.6667 6.14275 11.7896 6.4395 12.0084 6.65829C12.2272 6.87708 12.5239 7 12.8333 7H17.5" stroke="var(--stroke-0, white)" stroke-width="2.33333" stroke-linecap="round" stroke-linejoin="round"/>
<path id="Vector_2" d="M9.33333 10.5V17.5M15.1667 22.1667H3.5C2.88116 22.1667 2.28767 21.9208 1.85008 21.4832C1.4125 21.0457 1.16667 20.4522 1.16667 19.8333V3.5C1.16667 2.88116 1.4125 2.28767 1.85008 1.85008C2.28767 1.4125 2.88116 1.16667 3.5 1.16667H11.6667L17.5 7V19.8333C17.5 20.4522 17.2542 21.0457 16.8166 21.4832C16.379 21.9208 15.7855 22.1667 15.1667 22.1667Z" stroke="var(--stroke-0, white)" stroke-width="2.33333" stroke-linecap="round" stroke-linejoin="round"/>
<path id="Vector_3" d="M6.41667 13.4163L9.33333 10.4997L12.25 13.4163" stroke="var(--stroke-0, white)" stroke-width="2.33333" stroke-linecap="round" stroke-linejoin="round"/>
</g>
</svg>
