<svg preserveAspectRatio="none" width="100%" height="100%" overflow="visible" style="display: block;" viewBox="0 0 32 32" fill="none" xmlns="http://www.w3.org/2000/svg">
<g id="solar:document-add-bold">
<path id="Vector" d="M22.0252 22.0012C22.2585 21.8199 22.4705 21.6079 22.8932 21.1852L28.1692 15.9079C28.2972 15.7812 28.2385 15.5612 28.0692 15.5012C27.2429 15.2148 26.4931 14.7433 25.8772 14.1226C25.2565 13.5066 24.7849 12.7568 24.4985 11.9306C24.4385 11.7612 24.2185 11.7026 24.0918 11.8306L18.8132 17.1066C18.3905 17.5292 18.1785 17.7412 17.9972 17.9746C17.7812 18.251 17.5981 18.547 17.4478 18.8626C17.3212 19.1292 17.2265 19.4146 17.0372 19.9826L16.7918 20.7159L16.4025 21.8826L16.0385 22.9759C15.9931 23.1129 15.9867 23.2599 16.02 23.4003C16.0533 23.5408 16.125 23.6692 16.2271 23.7713C16.3292 23.8734 16.4576 23.9451 16.5981 23.9784C16.7385 24.0117 16.8855 24.0053 17.0225 23.9599L18.1158 23.5959L19.2825 23.2066L20.0158 22.9612C20.5838 22.7719 20.8692 22.6786 21.1358 22.5506C21.4514 22.3994 21.7487 22.2163 22.0252 22.0012ZM29.8225 14.2559C30.3634 13.7148 30.6672 12.9811 30.667 12.2161C30.6669 11.4511 30.3629 10.7174 29.8218 10.1766C29.2808 9.63569 28.5471 9.33191 27.782 9.33203C27.017 9.33216 26.2834 9.63618 25.7425 10.1772L25.5745 10.3479C25.4934 10.4272 25.433 10.5252 25.3986 10.6333C25.3642 10.7414 25.3568 10.8563 25.3772 10.9679C25.4038 11.1106 25.4505 11.3212 25.5372 11.5706C25.7105 12.0706 26.0385 12.7266 26.6558 13.3439C27.2732 13.9612 27.9292 14.2892 28.4292 14.4626C28.6798 14.5492 28.8892 14.5959 29.0318 14.6226C29.1434 14.6417 29.258 14.6338 29.3659 14.5995C29.4738 14.5651 29.5719 14.5054 29.6518 14.4252L29.8225 14.2559Z" fill="var(--fill-0, #FF541B)"/>
<path id="Vector_2" fill-rule="evenodd" clip-rule="evenodd" d="M5.56267 4.22966C4 5.79099 4 8.30566 4 13.3337V18.667C4 23.695 4 26.2097 5.56267 27.771C7.12533 29.3323 9.63867 29.3337 14.6667 29.3337H17.3333C22.3613 29.3337 24.876 29.3337 26.4373 27.771C27.9747 26.235 28 23.7763 28 18.907L24.2427 22.6643C23.8827 23.0243 23.588 23.319 23.256 23.579C22.8666 23.884 22.4444 24.1447 21.9973 24.3563C21.5882 24.5404 21.1678 24.6985 20.7387 24.8297L17.656 25.8577C17.1666 26.0209 16.6415 26.0445 16.1394 25.9261C15.6374 25.8076 15.1782 25.5516 14.8135 25.1868C14.4487 24.8221 14.1927 24.3629 14.0743 23.8609C13.9558 23.3588 13.9795 22.8337 14.1427 22.3443L14.508 21.251L15.1413 19.3497L15.1693 19.2617C15.3307 18.779 15.4627 18.3843 15.644 18.003C15.8573 17.555 16.1164 17.1359 16.4213 16.7457C16.6813 16.4123 16.976 16.119 17.336 15.759L22.6773 10.4163L24.16 8.93366L24.3293 8.76433C24.7824 8.30987 25.3209 7.9495 25.9138 7.70397C26.5067 7.45843 27.1423 7.33258 27.784 7.33366C27.5827 5.96033 27.192 4.98299 26.4373 4.22966C24.876 2.66699 22.3613 2.66699 17.3333 2.66699H14.6667C9.63867 2.66699 7.124 2.66699 5.56267 4.22966ZM9.66667 12.0003C9.66667 11.7351 9.77202 11.4808 9.95956 11.2932C10.1471 11.1057 10.4015 11.0003 10.6667 11.0003H19.3333C19.5986 11.0003 19.8529 11.1057 20.0404 11.2932C20.228 11.4808 20.3333 11.7351 20.3333 12.0003C20.3333 12.2655 20.228 12.5199 20.0404 12.7074C19.8529 12.895 19.5986 13.0003 19.3333 13.0003H10.6667C10.4015 13.0003 10.1471 12.895 9.95956 12.7074C9.77202 12.5199 9.66667 12.2655 9.66667 12.0003ZM9.66667 17.3337C9.66667 17.0684 9.77202 16.8141 9.95956 16.6266C10.1471 16.439 10.4015 16.3337 10.6667 16.3337H14C14.2652 16.3337 14.5196 16.439 14.7071 16.6266C14.8946 16.8141 15 17.0684 15 17.3337C15 17.5989 14.8946 17.8532 14.7071 18.0408C14.5196 18.2283 14.2652 18.3337 14 18.3337H10.6667C10.4015 18.3337 10.1471 18.2283 9.95956 18.0408C9.77202 17.8532 9.66667 17.5989 9.66667 17.3337ZM9.66667 22.667C9.66667 22.4018 9.77202 22.1474 9.95956 21.9599C10.1471 21.7723 10.4015 21.667 10.6667 21.667H12.6667C12.9319 21.667 13.1862 21.7723 13.3738 21.9599C13.5613 22.1474 13.6667 22.4018 13.6667 22.667C13.6667 22.9322 13.5613 23.1866 13.3738 23.3741C13.1862 23.5616 12.9319 23.667 12.6667 23.667H10.6667C10.4015 23.667 10.1471 23.5616 9.95956 23.3741C9.77202 23.1866 9.66667 22.9322 9.66667 22.667Z" fill="var(--fill-0, #FF541B)"/>
</g>
</svg>
