<svg preserveAspectRatio="none" width="100%" height="100%" overflow="visible" style="display: block;" viewBox="0 0 32 32" fill="none" xmlns="http://www.w3.org/2000/svg">
<g id="tabler:clock-filled">
<path id="Vector" d="M22.667 4.45352C24.678 5.61466 26.3509 7.28088 27.5201 9.28725C28.6892 11.2936 29.3141 13.5705 29.3329 15.8926C29.3517 18.2147 28.7636 20.5015 27.627 22.5264C26.4904 24.5514 24.8446 26.2445 22.8526 27.4379C20.8606 28.6314 18.5915 29.2839 16.2698 29.3309C13.9481 29.3779 11.6544 28.8177 9.61573 27.7058C7.57707 26.5939 5.86415 24.9689 4.64655 22.9915C3.42894 21.0142 2.74887 18.7531 2.67366 16.4322L2.66699 16.0002L2.67366 15.5682C2.74833 13.2655 3.41839 11.0215 4.61851 9.05484C5.81863 7.08822 7.50786 5.46612 9.52151 4.34669C11.5352 3.22727 13.8045 2.64871 16.1083 2.66743C18.4121 2.68615 20.6718 3.30151 22.667 4.45352ZM16.0003 8.00018C15.6737 8.00023 15.3585 8.12012 15.1145 8.33714C14.8704 8.55415 14.7145 8.85318 14.6763 9.17752L14.667 9.33352V16.0002L14.679 16.1748C14.7094 16.4062 14.8 16.6255 14.9417 16.8108L15.0577 16.9442L19.0577 20.9442L19.183 21.0535C19.4168 21.2349 19.7044 21.3334 20.0003 21.3334C20.2963 21.3334 20.5838 21.2349 20.8177 21.0535L20.943 20.9428L21.0537 20.8175C21.2351 20.5837 21.3335 20.2961 21.3335 20.0002C21.3335 19.7042 21.2351 19.4167 21.0537 19.1828L20.943 19.0575L17.3337 15.4468V9.33352L17.3243 9.17752C17.2861 8.85318 17.1302 8.55415 16.8862 8.33714C16.6421 8.12012 16.3269 8.00023 16.0003 8.00018Z" fill="var(--fill-0, #FF541B)"/>
</g>
</svg>
